<svg id="visual" viewBox="0 0 900 600" width="900" height="600" xmlns="http://www.w3.org/2000/svg" xmlns:xlink="http://www.w3.org/1999/xlink" version="1.1"><path d="M0 91L30 100C60 109 120 127 180 127C240 127 300 109 360 101C420 93 480 95 540 94C600 93 660 89 720 89C780 89 840 93 870 95L900 97L900 0L870 0C840 0 780 0 720 0C660 0 600 0 540 0C480 0 420 0 360 0C300 0 240 0 180 0C120 0 60 0 30 0L0 0Z" fill="#dcdcdc"></path><path d="M0 163L30 170C60 177 120 191 180 190C240 189 300 173 360 164C420 155 480 153 540 152C600 151 660 151 720 157C780 163 840 175 870 181L900 187L900 95L870 93C840 91 780 87 720 87C660 87 600 91 540 92C480 93 420 91 360 99C300 107 240 125 180 125C120 125 60 107 30 98L0 89Z" fill="#d4d4d4"></path><path d="M0 271L30 270C60 269 120 267 180 262C240 257 300 249 360 240C420 231 480 221 540 219C600 217 660 223 720 236C780 249 840 269 870 279L900 289L900 185L870 179C840 173 780 161 720 155C660 149 600 149 540 150C480 151 420 153 360 162C300 171 240 187 180 188C120 189 60 175 30 168L0 161Z" fill="#cccccc"></path><path d="M0 391L30 401C60 411 120 431 180 438C240 445 300 439 360 431C420 423 480 413 540 405C600 397 660 391 720 396C780 401 840 417 870 425L900 433L900 287L870 277C840 267 780 247 720 234C660 221 600 215 540 217C480 219 420 229 360 238C300 247 240 255 180 260C120 265 60 267 30 268L0 269Z" fill="#bababa"></path><path d="M0 601L30 601C60 601 120 601 180 601C240 601 300 601 360 601C420 601 480 601 540 601C600 601 660 601 720 601C780 601 840 601 870 601L900 601L900 431L870 423C840 415 780 399 720 394C660 389 600 395 540 403C480 411 420 421 360 429C300 437 240 443 180 436C120 429 60 409 30 399L0 389Z" fill="#a9a9a9"></path></svg>